<?xml version="1.0" encoding="UTF-8" standalone="no"?> <svg class="svg-icon" style="width: 1em; height: 1em;vertical-align: middle;fill: currentColor;overflow: hidden;" viewBox="0 0 1024 1024" version="1.1" xmlns="http://www.w3.org/2000/svg"><path d="M573.44 786.602667a105.130667 105.130667 0 0 1 76.458667-152.064 58.197333 58.197333 0 0 1 92.330666-62.122667l173.738667-327.168a546.133333 546.133333 0 0 0-772.266667 0L529.066667 972.8l78.165333-147.285333a104.96 104.96 0 0 1-33.792-38.912z" fill="#FBB040" /><path d="M529.066667 989.866667a17.066667 17.066667 0 0 1-15.018667-9.045334L128.512 253.269333a17.066667 17.066667 0 0 1 3.072-20.138666 563.2 563.2 0 0 1 796.501333 0 17.066667 17.066667 0 0 1 3.072 20.138666L757.418667 580.266667a17.066667 17.066667 0 0 1-25.770667 5.290666A41.130667 41.130667 0 0 0 665.6 629.589333a17.066667 17.066667 0 0 1-13.482667 21.845334 88.064 88.064 0 0 0-64.170666 127.317333 88.576 88.576 0 0 0 28.842666 32.597333 17.066667 17.066667 0 0 1 5.461334 22.186667l-78.165334 147.285333A17.066667 17.066667 0 0 1 529.066667 989.866667zM164.693333 248.490667L529.066667 936.448l56.32-106.154667a122.709333 122.709333 0 0 1-27.818667-35.669333 122.197333 122.197333 0 0 1 72.192-172.714667 75.264 75.264 0 0 1 105.130667-73.045333l159.232-300.032a529.066667 529.066667 0 0 0-730.282667 0z" fill="#BE1E2D" /><path d="M573.44 786.602667a105.130667 105.130667 0 0 1 76.458667-152.064 58.197333 58.197333 0 0 1 92.330666-62.122667l143.189334-269.824a546.133333 546.133333 0 0 0-711.509334 0L529.066667 972.8l78.165333-147.285333a104.96 104.96 0 0 1-33.792-38.912z" fill="#FBB040" /><path d="M529.066667 989.866667a17.066667 17.066667 0 0 1-15.018667-9.045334L158.890667 310.613333a17.066667 17.066667 0 0 1 3.925333-20.48 563.2 563.2 0 0 1 733.866667 0 17.066667 17.066667 0 0 1 3.925333 20.992L757.418667 580.266667a17.066667 17.066667 0 0 1-11.605334 8.704 17.066667 17.066667 0 0 1-14.165333-3.413334A41.130667 41.130667 0 0 0 665.6 629.589333a17.066667 17.066667 0 0 1-13.482667 21.845334 88.064 88.064 0 0 0-64.170666 127.317333 88.576 88.576 0 0 0 28.842666 32.597333 17.066667 17.066667 0 0 1 5.461334 22.186667l-78.165334 147.285333A17.066667 17.066667 0 0 1 529.066667 989.866667zM195.584 307.2L529.066667 936.448l56.32-106.154667a122.709333 122.709333 0 0 1-27.818667-35.669333 122.197333 122.197333 0 0 1 72.192-172.714667 75.264 75.264 0 0 1 105.130667-73.045333L863.914667 307.2a529.066667 529.066667 0 0 0-668.330667 0z" fill="#BE1E2D" /><path d="M356.352 326.997333m-17.066667 0a17.066667 17.066667 0 1 0 34.133334 0 17.066667 17.066667 0 1 0-34.133334 0Z" fill="#F2D09F" /><path d="M356.352 361.130667a34.133333 34.133333 0 1 1 34.133333-34.133334 34.133333 34.133333 0 0 1-34.133333 34.133334z m0-34.133334z" fill="#BE1E2D" /><path d="M527.018667 326.997333m-17.066667 0a17.066667 17.066667 0 1 0 34.133333 0 17.066667 17.066667 0 1 0-34.133333 0Z" fill="#F2D09F" /><path d="M527.018667 361.130667a34.133333 34.133333 0 1 1 34.133333-34.133334 34.133333 34.133333 0 0 1-34.133333 34.133334z m0-34.133334z" fill="#BE1E2D" /><path d="M697.685333 326.997333m-17.066666 0a17.066667 17.066667 0 1 0 34.133333 0 17.066667 17.066667 0 1 0-34.133333 0Z" fill="#F2D09F" /><path d="M697.685333 361.130667a34.133333 34.133333 0 1 1 34.133334-34.133334 34.133333 34.133333 0 0 1-34.133334 34.133334z m0-34.133334z" fill="#BE1E2D" /><path d="M612.352 446.464m-17.066667 0a17.066667 17.066667 0 1 0 34.133334 0 17.066667 17.066667 0 1 0-34.133334 0Z" fill="#F2D09F" /><path d="M612.352 480.597333a34.133333 34.133333 0 1 1 34.133333-34.133333 34.133333 34.133333 0 0 1-34.133333 34.133333z m0-34.133333z" fill="#BE1E2D" /><path d="M441.685333 446.464m-17.066666 0a17.066667 17.066667 0 1 0 34.133333 0 17.066667 17.066667 0 1 0-34.133333 0Z" fill="#F2D09F" /><path d="M441.685333 480.597333a34.133333 34.133333 0 1 1 34.133334-34.133333 34.133333 34.133333 0 0 1-34.133334 34.133333z m0-34.133333z" fill="#BE1E2D" /><path d="M489.642667 777.898667a17.066667 17.066667 0 0 1-15.701334-10.410667l-62.293333-146.432a17.066667 17.066667 0 0 1 32.085333-13.312l62.293334 146.432a17.066667 17.066667 0 0 1-15.701334 23.722667z" fill="#FFFFFF" /></svg>